<?xml version="1.0" encoding="UTF-8" standalone="no"?>
<!-- Created with Inkscape (http://www.inkscape.org/) -->

<svg
   xmlns:dc="http://purl.org/dc/elements/1.1/"
   xmlns:cc="http://creativecommons.org/ns#"
   xmlns:rdf="http://www.w3.org/1999/02/22-rdf-syntax-ns#"
   xmlns:svg="http://www.w3.org/2000/svg"
   xmlns="http://www.w3.org/2000/svg"
   xmlns:sodipodi="http://sodipodi.sourceforge.net/DTD/sodipodi-0.dtd"
   xmlns:inkscape="http://www.inkscape.org/namespaces/inkscape"
   width="280"
   height="30"
   viewBox="0 0 280 30"
   id="svg2"
   version="1.1"
   inkscape:version="0.47 r22583"
   sodipodi:docname="Côte-des-Neiges (logo).svg">
  <defs
     id="defs4">
    <inkscape:perspective
       sodipodi:type="inkscape:persp3d"
       inkscape:vp_x="0 : 526.18109 : 1"
       inkscape:vp_y="0 : 1000 : 0"
       inkscape:vp_z="744.09448 : 526.18109 : 1"
       inkscape:persp3d-origin="372.04724 : 350.78739 : 1"
       id="perspective10" />
    <inkscape:perspective
       id="perspective2828"
       inkscape:persp3d-origin="0.5 : 0.33333333 : 1"
       inkscape:vp_z="1 : 0.5 : 1"
       inkscape:vp_y="0 : 1000 : 0"
       inkscape:vp_x="0 : 0.5 : 1"
       sodipodi:type="inkscape:persp3d" />
    <inkscape:perspective
       id="perspective2842"
       inkscape:persp3d-origin="0.5 : 0.33333333 : 1"
       inkscape:vp_z="1 : 0.5 : 1"
       inkscape:vp_y="0 : 1000 : 0"
       inkscape:vp_x="0 : 0.5 : 1"
       sodipodi:type="inkscape:persp3d" />
    <inkscape:perspective
       id="perspective2856"
       inkscape:persp3d-origin="0.5 : 0.33333333 : 1"
       inkscape:vp_z="1 : 0.5 : 1"
       inkscape:vp_y="0 : 1000 : 0"
       inkscape:vp_x="0 : 0.5 : 1"
       sodipodi:type="inkscape:persp3d" />
    <inkscape:perspective
       id="perspective3655"
       inkscape:persp3d-origin="0.5 : 0.33333333 : 1"
       inkscape:vp_z="1 : 0.5 : 1"
       inkscape:vp_y="0 : 1000 : 0"
       inkscape:vp_x="0 : 0.5 : 1"
       sodipodi:type="inkscape:persp3d" />
    <inkscape:perspective
       id="perspective3750"
       inkscape:persp3d-origin="0.5 : 0.33333333 : 1"
       inkscape:vp_z="1 : 0.5 : 1"
       inkscape:vp_y="0 : 1000 : 0"
       inkscape:vp_x="0 : 0.5 : 1"
       sodipodi:type="inkscape:persp3d" />
    <inkscape:perspective
       id="perspective3806"
       inkscape:persp3d-origin="0.5 : 0.33333333 : 1"
       inkscape:vp_z="1 : 0.5 : 1"
       inkscape:vp_y="0 : 1000 : 0"
       inkscape:vp_x="0 : 0.5 : 1"
       sodipodi:type="inkscape:persp3d" />
    <inkscape:perspective
       id="perspective3851"
       inkscape:persp3d-origin="0.5 : 0.33333333 : 1"
       inkscape:vp_z="1 : 0.5 : 1"
       inkscape:vp_y="0 : 1000 : 0"
       inkscape:vp_x="0 : 0.5 : 1"
       sodipodi:type="inkscape:persp3d" />
    <inkscape:perspective
       id="perspective3910"
       inkscape:persp3d-origin="0.5 : 0.33333333 : 1"
       inkscape:vp_z="1 : 0.5 : 1"
       inkscape:vp_y="0 : 1000 : 0"
       inkscape:vp_x="0 : 0.5 : 1"
       sodipodi:type="inkscape:persp3d" />
    <inkscape:perspective
       id="perspective3951"
       inkscape:persp3d-origin="0.5 : 0.33333333 : 1"
       inkscape:vp_z="1 : 0.5 : 1"
       inkscape:vp_y="0 : 1000 : 0"
       inkscape:vp_x="0 : 0.5 : 1"
       sodipodi:type="inkscape:persp3d" />
    <inkscape:perspective
       id="perspective3965"
       inkscape:persp3d-origin="0.5 : 0.33333333 : 1"
       inkscape:vp_z="1 : 0.5 : 1"
       inkscape:vp_y="0 : 1000 : 0"
       inkscape:vp_x="0 : 0.5 : 1"
       sodipodi:type="inkscape:persp3d" />
    <inkscape:perspective
       id="perspective4012"
       inkscape:persp3d-origin="0.5 : 0.33333333 : 1"
       inkscape:vp_z="1 : 0.5 : 1"
       inkscape:vp_y="0 : 1000 : 0"
       inkscape:vp_x="0 : 0.5 : 1"
       sodipodi:type="inkscape:persp3d" />
    <inkscape:perspective
       id="perspective4053"
       inkscape:persp3d-origin="0.5 : 0.33333333 : 1"
       inkscape:vp_z="1 : 0.5 : 1"
       inkscape:vp_y="0 : 1000 : 0"
       inkscape:vp_x="0 : 0.5 : 1"
       sodipodi:type="inkscape:persp3d" />
    <inkscape:perspective
       id="perspective4104"
       inkscape:persp3d-origin="0.5 : 0.33333333 : 1"
       inkscape:vp_z="1 : 0.5 : 1"
       inkscape:vp_y="0 : 1000 : 0"
       inkscape:vp_x="0 : 0.5 : 1"
       sodipodi:type="inkscape:persp3d" />
    <inkscape:perspective
       id="perspective4151"
       inkscape:persp3d-origin="0.5 : 0.33333333 : 1"
       inkscape:vp_z="1 : 0.5 : 1"
       inkscape:vp_y="0 : 1000 : 0"
       inkscape:vp_x="0 : 0.5 : 1"
       sodipodi:type="inkscape:persp3d" />
    <inkscape:perspective
       id="perspective4198"
       inkscape:persp3d-origin="0.5 : 0.33333333 : 1"
       inkscape:vp_z="1 : 0.5 : 1"
       inkscape:vp_y="0 : 1000 : 0"
       inkscape:vp_x="0 : 0.5 : 1"
       sodipodi:type="inkscape:persp3d" />
    <inkscape:perspective
       id="perspective4243"
       inkscape:persp3d-origin="0.5 : 0.33333333 : 1"
       inkscape:vp_z="1 : 0.5 : 1"
       inkscape:vp_y="0 : 1000 : 0"
       inkscape:vp_x="0 : 0.5 : 1"
       sodipodi:type="inkscape:persp3d" />
    <inkscape:perspective
       id="perspective4294"
       inkscape:persp3d-origin="0.5 : 0.33333333 : 1"
       inkscape:vp_z="1 : 0.5 : 1"
       inkscape:vp_y="0 : 1000 : 0"
       inkscape:vp_x="0 : 0.5 : 1"
       sodipodi:type="inkscape:persp3d" />
    <inkscape:perspective
       id="perspective4345"
       inkscape:persp3d-origin="0.5 : 0.33333333 : 1"
       inkscape:vp_z="1 : 0.5 : 1"
       inkscape:vp_y="0 : 1000 : 0"
       inkscape:vp_x="0 : 0.5 : 1"
       sodipodi:type="inkscape:persp3d" />
    <inkscape:perspective
       id="perspective4406"
       inkscape:persp3d-origin="0.5 : 0.33333333 : 1"
       inkscape:vp_z="1 : 0.5 : 1"
       inkscape:vp_y="0 : 1000 : 0"
       inkscape:vp_x="0 : 0.5 : 1"
       sodipodi:type="inkscape:persp3d" />
    <inkscape:perspective
       id="perspective4463"
       inkscape:persp3d-origin="0.5 : 0.33333333 : 1"
       inkscape:vp_z="1 : 0.5 : 1"
       inkscape:vp_y="0 : 1000 : 0"
       inkscape:vp_x="0 : 0.5 : 1"
       sodipodi:type="inkscape:persp3d" />
    <inkscape:perspective
       id="perspective4521"
       inkscape:persp3d-origin="0.5 : 0.33333333 : 1"
       inkscape:vp_z="1 : 0.5 : 1"
       inkscape:vp_y="0 : 1000 : 0"
       inkscape:vp_x="0 : 0.5 : 1"
       sodipodi:type="inkscape:persp3d" />
    <inkscape:perspective
       id="perspective4582"
       inkscape:persp3d-origin="0.5 : 0.33333333 : 1"
       inkscape:vp_z="1 : 0.5 : 1"
       inkscape:vp_y="0 : 1000 : 0"
       inkscape:vp_x="0 : 0.5 : 1"
       sodipodi:type="inkscape:persp3d" />
    <inkscape:perspective
       id="perspective4669"
       inkscape:persp3d-origin="0.5 : 0.33333333 : 1"
       inkscape:vp_z="1 : 0.5 : 1"
       inkscape:vp_y="0 : 1000 : 0"
       inkscape:vp_x="0 : 0.5 : 1"
       sodipodi:type="inkscape:persp3d" />
    <inkscape:perspective
       id="perspective4730"
       inkscape:persp3d-origin="0.5 : 0.33333333 : 1"
       inkscape:vp_z="1 : 0.5 : 1"
       inkscape:vp_y="0 : 1000 : 0"
       inkscape:vp_x="0 : 0.5 : 1"
       sodipodi:type="inkscape:persp3d" />
    <inkscape:perspective
       id="perspective4789"
       inkscape:persp3d-origin="0.5 : 0.33333333 : 1"
       inkscape:vp_z="1 : 0.5 : 1"
       inkscape:vp_y="0 : 1000 : 0"
       inkscape:vp_x="0 : 0.5 : 1"
       sodipodi:type="inkscape:persp3d" />
    <inkscape:perspective
       id="perspective4846"
       inkscape:persp3d-origin="0.5 : 0.33333333 : 1"
       inkscape:vp_z="1 : 0.5 : 1"
       inkscape:vp_y="0 : 1000 : 0"
       inkscape:vp_x="0 : 0.5 : 1"
       sodipodi:type="inkscape:persp3d" />
    <inkscape:perspective
       id="perspective4929"
       inkscape:persp3d-origin="0.5 : 0.33333333 : 1"
       inkscape:vp_z="1 : 0.5 : 1"
       inkscape:vp_y="0 : 1000 : 0"
       inkscape:vp_x="0 : 0.5 : 1"
       sodipodi:type="inkscape:persp3d" />
    <inkscape:perspective
       id="perspective4974"
       inkscape:persp3d-origin="0.5 : 0.33333333 : 1"
       inkscape:vp_z="1 : 0.5 : 1"
       inkscape:vp_y="0 : 1000 : 0"
       inkscape:vp_x="0 : 0.5 : 1"
       sodipodi:type="inkscape:persp3d" />
    <inkscape:perspective
       id="perspective5027"
       inkscape:persp3d-origin="0.5 : 0.33333333 : 1"
       inkscape:vp_z="1 : 0.5 : 1"
       inkscape:vp_y="0 : 1000 : 0"
       inkscape:vp_x="0 : 0.5 : 1"
       sodipodi:type="inkscape:persp3d" />
    <inkscape:perspective
       id="perspective5072"
       inkscape:persp3d-origin="0.5 : 0.33333333 : 1"
       inkscape:vp_z="1 : 0.5 : 1"
       inkscape:vp_y="0 : 1000 : 0"
       inkscape:vp_x="0 : 0.5 : 1"
       sodipodi:type="inkscape:persp3d" />
    <inkscape:perspective
       id="perspective5145"
       inkscape:persp3d-origin="0.5 : 0.33333333 : 1"
       inkscape:vp_z="1 : 0.5 : 1"
       inkscape:vp_y="0 : 1000 : 0"
       inkscape:vp_x="0 : 0.5 : 1"
       sodipodi:type="inkscape:persp3d" />
    <inkscape:perspective
       id="perspective5194"
       inkscape:persp3d-origin="0.5 : 0.33333333 : 1"
       inkscape:vp_z="1 : 0.5 : 1"
       inkscape:vp_y="0 : 1000 : 0"
       inkscape:vp_x="0 : 0.5 : 1"
       sodipodi:type="inkscape:persp3d" />
    <inkscape:perspective
       id="perspective5255"
       inkscape:persp3d-origin="0.5 : 0.33333333 : 1"
       inkscape:vp_z="1 : 0.5 : 1"
       inkscape:vp_y="0 : 1000 : 0"
       inkscape:vp_x="0 : 0.5 : 1"
       sodipodi:type="inkscape:persp3d" />
    <inkscape:perspective
       id="perspective5306"
       inkscape:persp3d-origin="0.5 : 0.33333333 : 1"
       inkscape:vp_z="1 : 0.5 : 1"
       inkscape:vp_y="0 : 1000 : 0"
       inkscape:vp_x="0 : 0.5 : 1"
       sodipodi:type="inkscape:persp3d" />
    <inkscape:perspective
       id="perspective5355"
       inkscape:persp3d-origin="0.5 : 0.33333333 : 1"
       inkscape:vp_z="1 : 0.5 : 1"
       inkscape:vp_y="0 : 1000 : 0"
       inkscape:vp_x="0 : 0.5 : 1"
       sodipodi:type="inkscape:persp3d" />
    <inkscape:perspective
       id="perspective5498"
       inkscape:persp3d-origin="0.5 : 0.33333333 : 1"
       inkscape:vp_z="1 : 0.5 : 1"
       inkscape:vp_y="0 : 1000 : 0"
       inkscape:vp_x="0 : 0.5 : 1"
       sodipodi:type="inkscape:persp3d" />
    <inkscape:perspective
       id="perspective5547"
       inkscape:persp3d-origin="0.5 : 0.33333333 : 1"
       inkscape:vp_z="1 : 0.5 : 1"
       inkscape:vp_y="0 : 1000 : 0"
       inkscape:vp_x="0 : 0.5 : 1"
       sodipodi:type="inkscape:persp3d" />
    <inkscape:perspective
       id="perspective5586"
       inkscape:persp3d-origin="0.5 : 0.33333333 : 1"
       inkscape:vp_z="1 : 0.5 : 1"
       inkscape:vp_y="0 : 1000 : 0"
       inkscape:vp_x="0 : 0.5 : 1"
       sodipodi:type="inkscape:persp3d" />
    <inkscape:perspective
       id="perspective5635"
       inkscape:persp3d-origin="0.5 : 0.33333333 : 1"
       inkscape:vp_z="1 : 0.5 : 1"
       inkscape:vp_y="0 : 1000 : 0"
       inkscape:vp_x="0 : 0.5 : 1"
       sodipodi:type="inkscape:persp3d" />
    <inkscape:perspective
       id="perspective5693"
       inkscape:persp3d-origin="0.5 : 0.33333333 : 1"
       inkscape:vp_z="1 : 0.5 : 1"
       inkscape:vp_y="0 : 1000 : 0"
       inkscape:vp_x="0 : 0.5 : 1"
       sodipodi:type="inkscape:persp3d" />
    <inkscape:perspective
       id="perspective5744"
       inkscape:persp3d-origin="0.5 : 0.33333333 : 1"
       inkscape:vp_z="1 : 0.5 : 1"
       inkscape:vp_y="0 : 1000 : 0"
       inkscape:vp_x="0 : 0.5 : 1"
       sodipodi:type="inkscape:persp3d" />
    <inkscape:perspective
       id="perspective5789"
       inkscape:persp3d-origin="0.5 : 0.33333333 : 1"
       inkscape:vp_z="1 : 0.5 : 1"
       inkscape:vp_y="0 : 1000 : 0"
       inkscape:vp_x="0 : 0.5 : 1"
       sodipodi:type="inkscape:persp3d" />
    <inkscape:perspective
       id="perspective5840"
       inkscape:persp3d-origin="0.5 : 0.33333333 : 1"
       inkscape:vp_z="1 : 0.5 : 1"
       inkscape:vp_y="0 : 1000 : 0"
       inkscape:vp_x="0 : 0.5 : 1"
       sodipodi:type="inkscape:persp3d" />
    <inkscape:perspective
       id="perspective5885"
       inkscape:persp3d-origin="0.5 : 0.33333333 : 1"
       inkscape:vp_z="1 : 0.5 : 1"
       inkscape:vp_y="0 : 1000 : 0"
       inkscape:vp_x="0 : 0.5 : 1"
       sodipodi:type="inkscape:persp3d" />
    <inkscape:perspective
       id="perspective5942"
       inkscape:persp3d-origin="0.5 : 0.33333333 : 1"
       inkscape:vp_z="1 : 0.5 : 1"
       inkscape:vp_y="0 : 1000 : 0"
       inkscape:vp_x="0 : 0.5 : 1"
       sodipodi:type="inkscape:persp3d" />
    <inkscape:perspective
       id="perspective5981"
       inkscape:persp3d-origin="0.5 : 0.33333333 : 1"
       inkscape:vp_z="1 : 0.5 : 1"
       inkscape:vp_y="0 : 1000 : 0"
       inkscape:vp_x="0 : 0.5 : 1"
       sodipodi:type="inkscape:persp3d" />
    <inkscape:perspective
       id="perspective6024"
       inkscape:persp3d-origin="0.5 : 0.33333333 : 1"
       inkscape:vp_z="1 : 0.5 : 1"
       inkscape:vp_y="0 : 1000 : 0"
       inkscape:vp_x="0 : 0.5 : 1"
       sodipodi:type="inkscape:persp3d" />
    <inkscape:perspective
       id="perspective6083"
       inkscape:persp3d-origin="0.5 : 0.33333333 : 1"
       inkscape:vp_z="1 : 0.5 : 1"
       inkscape:vp_y="0 : 1000 : 0"
       inkscape:vp_x="0 : 0.5 : 1"
       sodipodi:type="inkscape:persp3d" />
    <inkscape:perspective
       id="perspective6144"
       inkscape:persp3d-origin="0.5 : 0.33333333 : 1"
       inkscape:vp_z="1 : 0.5 : 1"
       inkscape:vp_y="0 : 1000 : 0"
       inkscape:vp_x="0 : 0.5 : 1"
       sodipodi:type="inkscape:persp3d" />
    <inkscape:perspective
       id="perspective6189"
       inkscape:persp3d-origin="0.5 : 0.33333333 : 1"
       inkscape:vp_z="1 : 0.5 : 1"
       inkscape:vp_y="0 : 1000 : 0"
       inkscape:vp_x="0 : 0.5 : 1"
       sodipodi:type="inkscape:persp3d" />
    <inkscape:perspective
       id="perspective6236"
       inkscape:persp3d-origin="0.5 : 0.33333333 : 1"
       inkscape:vp_z="1 : 0.5 : 1"
       inkscape:vp_y="0 : 1000 : 0"
       inkscape:vp_x="0 : 0.5 : 1"
       sodipodi:type="inkscape:persp3d" />
    <inkscape:perspective
       id="perspective6291"
       inkscape:persp3d-origin="0.5 : 0.33333333 : 1"
       inkscape:vp_z="1 : 0.5 : 1"
       inkscape:vp_y="0 : 1000 : 0"
       inkscape:vp_x="0 : 0.5 : 1"
       sodipodi:type="inkscape:persp3d" />
    <inkscape:perspective
       id="perspective6344"
       inkscape:persp3d-origin="0.5 : 0.33333333 : 1"
       inkscape:vp_z="1 : 0.5 : 1"
       inkscape:vp_y="0 : 1000 : 0"
       inkscape:vp_x="0 : 0.5 : 1"
       sodipodi:type="inkscape:persp3d" />
    <inkscape:perspective
       id="perspective6391"
       inkscape:persp3d-origin="0.5 : 0.33333333 : 1"
       inkscape:vp_z="1 : 0.5 : 1"
       inkscape:vp_y="0 : 1000 : 0"
       inkscape:vp_x="0 : 0.5 : 1"
       sodipodi:type="inkscape:persp3d" />
    <inkscape:perspective
       id="perspective6434"
       inkscape:persp3d-origin="0.5 : 0.33333333 : 1"
       inkscape:vp_z="1 : 0.5 : 1"
       inkscape:vp_y="0 : 1000 : 0"
       inkscape:vp_x="0 : 0.5 : 1"
       sodipodi:type="inkscape:persp3d" />
    <inkscape:perspective
       id="perspective6473"
       inkscape:persp3d-origin="0.5 : 0.33333333 : 1"
       inkscape:vp_z="1 : 0.5 : 1"
       inkscape:vp_y="0 : 1000 : 0"
       inkscape:vp_x="0 : 0.5 : 1"
       sodipodi:type="inkscape:persp3d" />
    <inkscape:perspective
       id="perspective6524"
       inkscape:persp3d-origin="0.5 : 0.33333333 : 1"
       inkscape:vp_z="1 : 0.5 : 1"
       inkscape:vp_y="0 : 1000 : 0"
       inkscape:vp_x="0 : 0.5 : 1"
       sodipodi:type="inkscape:persp3d" />
    <inkscape:perspective
       id="perspective6571"
       inkscape:persp3d-origin="0.5 : 0.33333333 : 1"
       inkscape:vp_z="1 : 0.5 : 1"
       inkscape:vp_y="0 : 1000 : 0"
       inkscape:vp_x="0 : 0.5 : 1"
       sodipodi:type="inkscape:persp3d" />
    <inkscape:perspective
       id="perspective6620"
       inkscape:persp3d-origin="0.5 : 0.33333333 : 1"
       inkscape:vp_z="1 : 0.5 : 1"
       inkscape:vp_y="0 : 1000 : 0"
       inkscape:vp_x="0 : 0.5 : 1"
       sodipodi:type="inkscape:persp3d" />
    <inkscape:perspective
       id="perspective6667"
       inkscape:persp3d-origin="0.5 : 0.33333333 : 1"
       inkscape:vp_z="1 : 0.5 : 1"
       inkscape:vp_y="0 : 1000 : 0"
       inkscape:vp_x="0 : 0.5 : 1"
       sodipodi:type="inkscape:persp3d" />
    <inkscape:perspective
       id="perspective6732"
       inkscape:persp3d-origin="0.5 : 0.33333333 : 1"
       inkscape:vp_z="1 : 0.5 : 1"
       inkscape:vp_y="0 : 1000 : 0"
       inkscape:vp_x="0 : 0.5 : 1"
       sodipodi:type="inkscape:persp3d" />
    <inkscape:perspective
       id="perspective6793"
       inkscape:persp3d-origin="0.5 : 0.33333333 : 1"
       inkscape:vp_z="1 : 0.5 : 1"
       inkscape:vp_y="0 : 1000 : 0"
       inkscape:vp_x="0 : 0.5 : 1"
       sodipodi:type="inkscape:persp3d" />
  </defs>
  <sodipodi:namedview
     id="base"
     pagecolor="#0b0b0b"
     bordercolor="#666666"
     borderopacity="1.0"
     inkscape:pageopacity="0.0"
     inkscape:pageshadow="2"
     inkscape:zoom="1.4142136"
     inkscape:cx="145.61231"
     inkscape:cy="13.325595"
     inkscape:document-units="px"
     inkscape:current-layer="layer1"
     showgrid="false"
     inkscape:window-width="808"
     inkscape:window-height="483"
     inkscape:window-x="-6"
     inkscape:window-y="77"
     inkscape:window-maximized="0"
     showguides="true"
     inkscape:guide-bbox="true" />
  <metadata
     id="metadata7">
    <rdf:RDF>
      <cc:Work
         rdf:about="">
        <dc:format>image/svg+xml</dc:format>
        <dc:type
           rdf:resource="http://purl.org/dc/dcmitype/StillImage" />
        <dc:title></dc:title>
      </cc:Work>
    </rdf:RDF>
  </metadata>
  <g
     inkscape:label="Calque 1"
     inkscape:groupmode="layer"
     id="layer1"
     transform="translate(826.36194,-614.38538)">
    
    <g
       id="g4423">
      <g
         style="font-size:23.22050095px;font-style:normal;font-variant:normal;font-weight:normal;font-stretch:normal;text-align:start;line-height:125%;writing-mode:lr-tb;text-anchor:start;fill:#0b0b0b;fill-opacity:1;stroke:none;font-family:Zurich Cn BT;-inkscape-font-specification:Zurich Cn BT"
         id="text2816" />
    </g>
    <g
       id="g6588" />
    <g
       id="g6810">
      <g
         style="font-size:23.22050095px;font-style:normal;font-variant:normal;font-weight:normal;font-stretch:normal;text-align:start;line-height:125%;writing-mode:lr-tb;text-anchor:start;fill:#0b0b0b;fill-opacity:1;stroke:none;font-family:Zurich Cn BT;-inkscape-font-specification:Zurich Cn BT"
         id="text2816-2">
        <path
           id="path6857"
           style="text-align:center;text-anchor:middle"
           d="m -571.00773,637.74158 0,-16.72375 2.18826,0 0,14.79626 5.70309,0 0,1.92749 z m -10.77123,-6.03189 4.78469,0 -2.34699,-8.08409 z m 6.48541,6.03189 -1.12247,-4.05906 -5.91851,0 -1.15649,4.05906 -2.39234,0 5.24955,-16.72375 2.64179,0 5.1135,16.72375 z m -20.20455,0 0,-16.72375 8.35621,0 0,1.83678 -6.14527,0 0,5.36293 5.96386,0 0,1.88213 -5.96386,0 0,5.80513 6.14527,0 0,1.83678 z m 2.56242,-18.26574 2.31298,-3.94567 2.27897,0 -3.23137,3.94567 z m -13.00484,8.80973 1.62136,0 c 1.20939,10e-6 2.0881,-0.23431 2.63611,-0.70296 0.54801,-0.46863 0.82201,-1.22451 0.82202,-2.26763 -10e-6,-0.85413 -0.21543,-1.49284 -0.64627,-1.91614 -0.43086,-0.42328 -1.08091,-0.63492 -1.95016,-0.63494 l -2.48306,0 z m 2.17693,-7.26774 c 1.78386,10e-6 3.08207,0.32126 3.89465,0.96374 0.81255,0.64251 1.21883,1.66294 1.21885,3.0613 -2e-5,1.11114 -0.23623,2.00119 -0.70864,2.67013 -0.47243,0.66896 -1.19618,1.13949 -2.17125,1.41159 0.89948,0.0983 1.5382,0.41008 1.91614,0.9354 0.37793,0.52534 0.5669,1.38137 0.56691,2.56809 -10e-6,0.23432 -0.004,0.53856 -0.0113,0.91272 -0.008,0.37416 -0.0113,0.63683 -0.0113,0.788 -10e-6,0.63494 0.0359,1.23397 0.10772,1.79709 0.0718,0.56313 0.18329,1.10169 0.33447,1.61569 l -2.27896,0 c -0.22677,-0.74832 -0.34771,-1.99173 -0.36282,-3.73025 -0.008,-0.62737 -0.0189,-1.11113 -0.034,-1.45128 -0.0227,-0.9146 -0.18331,-1.55332 -0.48187,-1.91615 -0.29858,-0.36281 -0.80312,-0.54422 -1.51364,-0.54423 l -2.64179,0 0,7.64191 -2.21093,0 0,-16.72375 z m -12.36991,16.72375 0,-15.00036 -4.10441,0 0,-1.72339 10.30637,0 0,1.72339 -3.99103,0 0,15.00036 z m -7.90268,-1.92749 c -0.0303,-0.53667 -0.0529,-1.06011 -0.068,-1.57033 -0.0151,-0.51021 -0.0227,-1.0072 -0.0227,-1.49096 l 0,-11.73497 2.04086,0 0,16.72375 -2.99326,0 -6.42873,-15.20444 c 0.0605,0.71809 0.10582,1.33413 0.13606,1.84811 0.0302,0.51401 0.0453,0.94864 0.0453,1.30389 l 0,12.05244 -1.99551,0 0,-16.72375 3.14067,0 z m -12.12046,-6.24731 c -2e-5,1.77632 -0.068,3.12366 -0.20409,4.04205 -0.13607,0.91839 -0.35527,1.64592 -0.65761,2.18259 -0.4233,0.72564 -1.01478,1.27932 -1.77442,1.66103 -0.75966,0.38172 -1.65349,0.57258 -2.68147,0.57258 -0.83903,0 -1.59679,-0.13039 -2.2733,-0.39117 -0.67651,-0.26077 -1.23397,-0.63682 -1.67237,-1.12814 -0.50644,-0.55935 -0.8617,-1.31333 -1.06579,-2.26196 -0.20408,-0.94862 -0.30613,-2.56808 -0.30613,-4.85839 0,-1.94259 0.0643,-3.36363 0.19275,-4.26314 0.1285,-0.89948 0.3477,-1.61756 0.65761,-2.15424 0.40817,-0.71807 0.99209,-1.26419 1.75175,-1.63836 0.75965,-0.37415 1.66481,-0.56122 2.71548,-0.56124 0.83901,2e-5 1.59678,0.12851 2.2733,0.3855 0.6765,0.25701 1.23395,0.63117 1.67237,1.12247 0.49887,0.57448 0.85224,1.34358 1.06012,2.30731 0.20785,0.96375 0.31178,2.62479 0.3118,4.98311 z m -2.25629,-0.18141 c -1e-5,-2.82696 -0.22489,-4.65618 -0.67462,-5.48766 -0.44976,-0.83144 -1.25287,-1.24718 -2.40936,-1.24719 -0.50644,10e-6 -0.9543,0.0926 -1.34357,0.27778 -0.38928,0.18521 -0.70107,0.45543 -0.93539,0.81068 -0.27968,0.4233 -0.4781,0.98076 -0.59525,1.67238 -0.11717,0.69163 -0.17575,2.0163 -0.17574,3.97401 -10e-6,1.67049 0.0359,2.8421 0.10771,3.51482 0.0718,0.67274 0.19085,1.20185 0.35715,1.58734 0.24943,0.55935 0.5858,0.97508 1.00909,1.2472 0.42329,0.27211 0.94862,0.40817 1.576,0.40817 1.15649,0 1.9596,-0.41951 2.40936,-1.25853 0.44973,-0.83902 0.67461,-2.67202 0.67462,-5.499 z m -26.65597,8.35621 0,-16.72375 3.56018,0 3.59419,11.49687 c 0.068,0.24188 0.16061,0.58392 0.27778,1.0261 0.11715,0.44219 0.2551,0.98453 0.41384,1.62702 0.11337,-0.54423 0.22486,-1.04877 0.33448,-1.51364 0.10959,-0.46486 0.20974,-0.85225 0.30046,-1.16216 l 3.50348,-11.47419 3.43546,0 0,16.72375 -2.04087,0 0,-11.96174 c -1e-5,-0.68027 0.004,-1.29253 0.0113,-1.83677 0.008,-0.54422 0.0189,-1.09979 0.034,-1.66671 l -4.71666,15.46522 -1.88213,0 -4.83005,-15.62395 c 0.0227,0.59715 0.0397,1.23965 0.051,1.92748 0.0113,0.68786 0.017,1.42106 0.017,2.1996 l 0,11.49687 z m -7.19972,-5.01146 0,-1.70072 4.92075,0 0,1.70072 z m -10.03424,5.01146 0,-16.72375 8.3562,0 0,1.83678 -6.14526,0 0,5.36293 5.96385,0 0,1.88213 -5.96385,0 0,5.80513 6.14526,0 0,1.83678 z m -13.10689,0 0,-16.72375 4.0137,0 c 1.51175,10e-6 2.5832,0.0888 3.21436,0.26644 0.63115,0.17765 1.16971,0.47811 1.61569,0.90139 0.56689,0.52912 0.96562,1.25476 1.19617,2.17692 0.23053,0.92218 0.3458,2.65691 0.34581,5.2042 -1e-5,1.85946 -0.0775,3.23326 -0.23243,4.12141 -0.15496,0.88816 -0.41007,1.59679 -0.76532,2.1259 -0.47622,0.71053 -1.06769,1.20941 -1.77442,1.49664 -0.70675,0.28723 -1.9067,0.43085 -3.59986,0.43085 z m 2.23361,-1.90481 2.347,0 c 0.80878,0 1.4456,-0.0907 1.91047,-0.27211 0.46486,-0.18141 0.81823,-0.4762 1.06012,-0.88438 0.23431,-0.40817 0.40438,-1.02421 0.51022,-1.84812 0.10581,-0.82389 0.15872,-2.0144 0.15873,-3.57151 -10e-6,-1.12624 -0.0321,-2.11266 -0.0964,-2.95925 -0.0643,-0.84657 -0.14173,-1.38324 -0.23243,-1.61002 -0.24189,-0.67271 -0.61038,-1.1508 -1.10546,-1.43427 -0.49511,-0.28344 -1.2302,-0.42517 -2.20527,-0.42518 l -2.347,0 z m -9.43332,-3.10665 0,-1.70072 4.92075,0 0,1.70072 z m -10.03425,5.01146 0,-16.72375 8.3562,0 0,1.83678 -6.14527,0 0,5.36293 5.96386,0 0,1.88213 -5.96386,0 0,5.80513 6.14527,0 0,1.83678 z m 2.56242,-18.26574 2.31298,-3.94567 2.27896,0 -3.23137,3.94567 z m -10.58982,18.26574 0,-15.00036 -4.1044,0 0,-1.72339 10.30636,0 0,1.72339 -3.99102,0 0,15.00036 z m -8.14078,0 0,-16.72375 2.25629,0 0,16.72375 z m -12.86878,-4.83005 2.41502,0 0,0.30613 c 0,1.06579 0.19842,1.84245 0.59525,2.32999 0.39683,0.48754 1.0261,0.73131 1.8878,0.73131 0.81634,0 1.48907,-0.24188 2.01819,-0.72564 0.52911,-0.48376 0.79366,-1.09224 0.79367,-1.82544 -10e-6,-0.95996 -1.03556,-2.08621 -3.10665,-3.37877 -0.2948,-0.18896 -0.52156,-0.33257 -0.68029,-0.43085 -1.61757,-1.03554 -2.64556,-1.87645 -3.08397,-2.52273 -0.43841,-0.64626 -0.65761,-1.43804 -0.65761,-2.37534 0,-1.26986 0.45541,-2.29974 1.36624,-3.08964 0.91083,-0.78988 2.10322,-1.18482 3.57719,-1.18484 1.51174,2e-5 2.66823,0.37607 3.46946,1.12815 0.80122,0.75211 1.20184,1.83868 1.20185,3.25971 l 0,0.41951 -2.30164,0 0,-0.35148 c -10e-6,-0.89192 -0.20599,-1.56843 -0.61793,-2.02953 -0.41196,-0.46107 -1.02611,-0.69161 -1.84245,-0.69162 -0.74832,10e-6 -1.36814,0.21733 -1.85945,0.65194 -0.49133,0.43464 -0.73699,0.97698 -0.73698,1.62702 -10e-6,1.07336 1.11113,2.32055 3.33341,3.74159 0.40816,0.257 0.72185,0.45731 0.94106,0.60092 1.32278,0.8617 2.19392,1.59112 2.61344,2.18826 0.4195,0.59715 0.62926,1.30011 0.62927,2.10889 -1e-5,1.47396 -0.44409,2.61344 -1.33223,3.41845 -0.88816,0.80501 -2.1448,1.20751 -3.76993,1.20751 -1.61758,0 -2.83454,-0.3855 -3.65088,-1.15649 -0.81635,-0.77099 -1.22452,-1.91992 -1.22452,-3.44679 0,-0.0529 0.004,-0.13606 0.0113,-0.24944 0.008,-0.11338 0.0113,-0.2003 0.0113,-0.26078 z m -9.79615,-4.62596 1.62135,0 c 1.20939,10e-6 2.0881,-0.23431 2.63612,-0.70296 0.548,-0.46863 0.822,-1.22451 0.82201,-2.26763 -10e-6,-0.85413 -0.21543,-1.49284 -0.64627,-1.91614 -0.43086,-0.42328 -1.08091,-0.63492 -1.95016,-0.63494 l -2.48305,0 z m 2.17692,-7.26774 c 1.78386,10e-6 3.08207,0.32126 3.89465,0.96374 0.81255,0.64251 1.21884,1.66294 1.21885,3.0613 -10e-6,1.11114 -0.23622,2.00119 -0.70864,2.67013 -0.47243,0.66896 -1.19618,1.13949 -2.17125,1.41159 0.89948,0.0983 1.5382,0.41008 1.91615,0.9354 0.37792,0.52534 0.56689,1.38137 0.5669,2.56809 -10e-6,0.23432 -0.004,0.53856 -0.0113,0.91272 -0.008,0.37416 -0.0113,0.63683 -0.0113,0.788 -1e-5,0.63494 0.0359,1.23397 0.10771,1.79709 0.0718,0.56313 0.18329,1.10169 0.33447,1.61569 l -2.27896,0 c -0.22677,-0.74832 -0.34771,-1.99173 -0.36282,-3.73025 -0.008,-0.62737 -0.0189,-1.11113 -0.034,-1.45128 -0.0227,-0.9146 -0.1833,-1.55332 -0.48187,-1.91615 -0.29858,-0.36281 -0.80312,-0.54422 -1.51364,-0.54423 l -2.64178,0 0,7.64191 -2.21094,0 0,-16.72375 z m -15.13641,16.72375 0,-16.72375 8.35621,0 0,1.83678 -6.14527,0 0,5.36293 5.96385,0 0,1.88213 -5.96385,0 0,5.80513 6.14527,0 0,1.83678 z m -8.90044,0 -4.73934,-16.72375 2.50573,0 2.99327,12.47195 c 0.0151,0.0529 0.034,0.1285 0.0567,0.22676 0.24943,1.05067 0.41951,1.82544 0.51022,2.32432 0.0605,-0.27968 0.13983,-0.66139 0.2381,-1.14515 0.15117,-0.69541 0.25699,-1.15649 0.31747,-1.38326 l 3.17467,-12.49462 2.32432,0 -4.73934,16.72375 z m -8.49226,0 0,-16.72375 2.25629,0 0,16.72375 z m -5.02279,-1.92749 c -0.0303,-0.53667 -0.0529,-1.06011 -0.068,-1.57033 -0.0151,-0.51021 -0.0227,-1.0072 -0.0227,-1.49096 l 0,-11.73497 2.04086,0 0,16.72375 -2.99326,0 -6.42873,-15.20444 c 0.0605,0.71809 0.10582,1.33413 0.13606,1.84811 0.0302,0.51401 0.0453,0.94864 0.0453,1.30389 l 0,12.05244 -1.99551,0 0,-16.72375 3.14067,0 z m -20.66942,-14.79626 0,10.80524 c -10e-6,0.8995 0.0378,1.55144 0.11338,1.95583 0.0756,0.4044 0.2003,0.75021 0.37415,1.03744 0.27967,0.46108 0.63305,0.80501 1.06012,1.03177 0.42706,0.22676 0.94295,0.34014 1.54766,0.34014 0.60469,0 1.12435,-0.11338 1.55899,-0.34014 0.43462,-0.22676 0.78799,-0.57069 1.06012,-1.03177 0.16628,-0.27967 0.28533,-0.62171 0.35715,-1.0261 0.0718,-0.40439 0.1077,-1.05255 0.10771,-1.94449 l 0,-0.37416 0,-10.45376 2.12023,0 0,10.47643 c -10e-6,2.33566 -0.40629,4.00804 -1.21885,5.01713 -0.81258,1.00909 -2.14103,1.51364 -3.98535,1.51364 -0.98265,0 -1.81222,-0.15306 -2.48872,-0.45919 -0.67652,-0.30613 -1.24909,-0.78044 -1.71773,-1.42294 -0.34771,-0.49132 -0.59715,-1.04877 -0.74832,-1.67237 -0.15118,-0.6236 -0.22676,-1.57789 -0.22676,-2.86288 l 0,-0.48754 0,-10.10228 z" />
      </g>
    </g>
  </g>
</svg>
